<?xml version="1.0" encoding="UTF-8"?>
<svg width="1296px" height="361px" viewBox="0 0 1296 361" version="1.1" xmlns="http://www.w3.org/2000/svg" xmlns:xlink="http://www.w3.org/1999/xlink">
    <!-- Generator: Sketch 52.6 (67491) - http://www.bohemiancoding.com/sketch -->
    <title>Group</title>
    <desc>Created with Sketch.</desc>
    <defs>
        <linearGradient x1="79.5107908%" y1="66.9666346%" x2="-12.1594445%" y2="106.17852%" id="linearGradient-1">
            <stop stop-color="#FAD961" offset="0%"></stop>
            <stop stop-color="#F76B1C" offset="100%"></stop>
        </linearGradient>
        <path d="M311.482121,174.811 L283.413121,12.445 C282.170121,5.254 275.931121,0 268.632121,0 L40.0001211,0 C32.5971211,0 26.3011211,5.401 25.1741211,12.718 L0.178121124,175.084 C-1.22187888,184.171 5.80912112,192.366 15.0031211,192.366 L114.493121,192.366 C118.359121,192.366 121.493121,189.232 121.493121,185.366 L121.493121,134.727 C121.493121,130.861 124.627121,127.727 128.493121,127.727 L179.791121,127.727 C183.657121,127.727 186.791121,130.861 186.791121,134.727 L186.791121,185.366 C186.791121,189.232 189.925121,192.366 193.791121,192.366 L296.701121,192.366 C306.007121,192.366 313.067121,183.981 311.482121,174.811" id="path-2"></path>
        <linearGradient x1="50%" y1="0%" x2="54.2097249%" y2="123.506945%" id="linearGradient-4">
            <stop stop-color="#FAD961" offset="0%"></stop>
            <stop stop-color="#F76B1C" offset="100%"></stop>
        </linearGradient>
        <path d="M219.202148,0 L150.021148,0 C146.156148,0 143.021148,3.134 143.021148,7 L143.021148,41.836 C143.021148,45.702 139.887148,48.836 136.021148,48.836 L100.688148,48.836 C96.822148,48.836 93.688148,45.702 93.688148,41.836 L93.688148,7 C93.688148,3.134 90.554148,0 86.688148,0 L15.004148,0 C5.69814797,0 -1.36185203,8.386 0.223147971,17.555 L20.162148,132.892 C21.405148,140.083 27.644148,145.336 34.942148,145.336 L201.446148,145.336 C208.849148,145.336 215.145148,139.936 216.271148,132.619 L234.027148,17.283 C235.426148,8.196 228.396148,0 219.202148,0" id="path-5"></path>
    </defs>
    <g id="Logo" stroke="none" stroke-width="1" fill="none" fill-rule="evenodd">
        <g id="Logo-Full-Color--Light-Bkg" transform="translate(-544.000000, -332.000000)">
            <g id="Group" transform="translate(544.000000, 332.000000)">
                <g id="Logotype" transform="translate(398.000000, 92.000000)" fill="#1B2E41">
                    <path d="M133.598,128.303 C133.598,123.214 131.397,121.232 125.749,121.232 L73.551,121.232 C61.882,121.232 56.21,117.002 56.21,108.303 L56.21,60.217 C56.21,51.198 61.882,46.813 73.551,46.813 L125.749,46.813 C131.397,46.813 133.598,44.83 133.598,39.74 L133.598,7.071 C133.598,1.983 131.397,0 125.749,0 L62.384,0 C40.707,0 25.205,3.793 14.992,11.597 C4.904,19.304 0,30.986 0,47.309 L0,121.357 C0,153.471 19.823,168.428 62.384,168.428 L125.749,168.428 C131.397,168.428 133.598,166.446 133.598,161.357 L133.598,128.303 Z" id="Fill-1"></path>
                    <path d="M276.168,168.428 L316.42,168.428 C322.069,168.428 324.27,166.446 324.27,161.357 L324.27,7.071 C324.27,1.983 322.069,0 316.42,0 L276.168,0 C270.52,0 268.319,1.983 268.319,7.071 L268.319,60.238 L221.95,60.238 L221.95,7.071 C221.95,1.983 219.75,0 214.102,0 L173.849,0 C168.201,0 166,1.983 166,7.071 L166,161.357 C166,166.446 168.201,168.428 173.849,168.428 L214.102,168.428 C219.75,168.428 221.95,166.446 221.95,161.357 L221.95,107 L268.319,107 L268.319,161.357 C268.319,166.446 270.52,168.428 276.168,168.428" id="Fill-4"></path>
                    <path d="M409.621,0 L368.85,0 C363.201,0 361,1.982 361,7.07 L361,123.207 C361,139.168 365.883,150.238 376.367,158.043 C388.981,167.435 409.713,172 439.746,172 C469.778,172 490.51,167.435 503.124,158.043 C513.608,150.238 518.491,139.168 518.491,123.207 L518.491,7.07 C518.491,1.982 516.29,0 510.642,0 L471.168,0 C465.373,0 463.319,1.851 463.319,7.07 L463.319,111.34 C463.319,124.674 450.782,127.473 440.265,127.473 C431.619,127.473 425.585,125.889 421.819,122.632 C418.893,120.101 417.47,116.688 417.47,112.2 L417.47,7.07 C417.47,1.982 415.269,0 409.621,0" id="Fill-7"></path>
                    <path d="M703.631,102.479 C709.538,88.942 711.528,84.381 711.528,69.927 L711.528,7.07 C711.528,1.85 709.474,0 703.679,0 L662.908,0 C657.259,0 655.059,1.982 655.059,7.07 L655.059,72.546 C655.059,76.136 654.229,79.139 652.891,82.821 L640.685,116.393 C639.62,119.569 638.235,121.427 634.341,121.427 L631.485,121.427 C627.592,121.427 626.206,119.569 625.129,116.358 L612.937,83.062 C611.597,79.378 610.768,76.376 610.768,72.785 L610.768,7.07 C610.768,3.778 609.787,0 602.139,0 L560.848,0 C555.2,0 553,1.982 553,7.07 L553,69.927 C553,84.381 554.99,88.942 560.898,102.479 L586.634,161.47 C588.875,166.607 591.981,168.427 598.504,168.427 L666.024,168.427 C672.547,168.427 675.653,166.607 677.893,161.47 L703.631,102.479 Z" id="Fill-9"></path>
                    <path d="M794.88,86.19 L807.809,47.877 C809.317,44.562 811.377,42.951 814.109,42.951 L820.601,42.951 C823.333,42.951 825.394,44.562 826.901,47.877 L826.957,48.019 L839.83,86.19 L794.88,86.19 Z M850.466,168.427 L889.679,168.427 C895.328,168.427 897.528,166.445 897.528,161.356 L897.528,98.499 C897.528,89.14 894.347,77.219 887.518,60.986 L864.923,6.934 C863.097,2.125 859.525,0 853.323,0 L783.465,0 C776.996,0 773.455,2.06 771.623,6.888 L749.011,60.982 C742.181,77.219 739,89.14 739,98.499 L739,161.356 C739,166.445 741.2,168.427 746.848,168.427 L785.024,168.427 C790.672,168.427 792.872,166.445 792.872,161.356 L792.872,126.523 L841.838,126.523 L841.838,161.356 C841.838,165.6 843.305,168.427 850.466,168.427 Z" id="Fill-11"></path>
                </g>
                <g id="Icon">
                    <g id="bottom" transform="translate(0.000000, 168.000000)">
                        <mask id="mask-3" fill="white">
                            <use xlink:href="#path-2"></use>
                        </mask>
                        <use id="Mask" fill="url(#linearGradient-1)" xlink:href="#path-2"></use>
                        <path d="M237.908339,40 C243.176283,40 247.680527,43.7917938 248.577767,48.9832236 L271,195 C272.144107,201.619217 37.9901543,201.559305 39,195 L62.1720871,49.1795625 C62.985594,43.8986252 67.5302606,40 72.8732756,40 L237.908339,40 Z" id="Fill-3" fill="url(#linearGradient-4)" opacity="0.696218297" mask="url(#mask-3)"></path>
                    </g>
                    <g id="top" transform="translate(39.000000, 0.000000)">
                        <mask id="mask-6" fill="white">
                            <use xlink:href="#path-5"></use>
                        </mask>
                        <use id="Mask" fill="url(#linearGradient-1)" xlink:href="#path-5"></use>
                        <path d="M63.2745028,107 C58.4134341,107 54.2577465,103.530192 53.4291401,98.7796004 L36.1553034,-2.40424946 C35.0988969,-8.46138603 39.8021041,-14 46,-14 L189.12533,-13.819673 C195.249291,-13.819673 199.931849,-8.40656135 199,-2.40424946 L184.054542,98.5992734 C183.303868,103.432432 179.110213,107 174.179206,107 L63.2745028,107 Z" id="Fill-1" fill="url(#linearGradient-4)" mask="url(#mask-6)"></path>
                    </g>
                </g>
            </g>
        </g>
    </g>
</svg>