<svg width="416" height="481" viewBox="0 0 416 481" fill="none" xmlns="http://www.w3.org/2000/svg">
<mask id="mask0_0_184" style="mask-type:alpha" maskUnits="userSpaceOnUse" x="0" y="223" width="416" height="258">
<path d="M414.979 456.797L377.648 240.444C375.995 230.862 367.698 223.861 357.991 223.861H53.9226C44.077 223.861 35.7036 231.058 34.2048 240.808L0.961501 457.161C-0.900422 469.27 8.45042 480.19 20.6779 480.19H152.994C158.136 480.19 162.304 476.014 162.304 470.862V403.385C162.304 398.234 166.472 394.058 171.613 394.058H239.837C244.978 394.058 249.146 398.234 249.146 403.385V470.862C249.146 476.014 253.315 480.19 258.456 480.19H395.321C407.697 480.19 417.087 469.017 414.979 456.797Z" fill="white"/>
</mask>
<g mask="url(#mask0_0_184)">
<path d="M414.979 456.797L377.648 240.444C375.995 230.862 367.698 223.861 357.991 223.861H53.9226C44.077 223.861 35.7036 231.058 34.2048 240.808L0.961501 457.161C-0.900422 469.27 8.45042 480.19 20.6779 480.19H152.994C158.136 480.19 162.304 476.014 162.304 470.862V403.385C162.304 398.234 166.472 394.058 171.613 394.058H239.837C244.978 394.058 249.146 398.234 249.146 403.385V470.862C249.146 476.014 253.315 480.19 258.456 480.19H395.321C407.697 480.19 417.087 469.017 414.979 456.797Z" fill="url(#paint0_linear_0_184)"/>
<path opacity="0.696218" fill-rule="evenodd" clip-rule="evenodd" d="M317.13 277.161C324.136 277.161 330.126 282.214 331.319 289.131L361.14 483.699C362.661 492.52 51.2494 492.44 52.5925 483.699L83.4101 289.393C84.492 282.356 90.5361 277.161 97.6421 277.161H317.13Z" fill="url(#paint1_linear_0_184)"/>
</g>
<mask id="mask1_0_184" style="mask-type:alpha" maskUnits="userSpaceOnUse" x="52" y="0" width="313" height="194">
<path d="M344.119 0H252.112C246.972 0 242.803 4.17607 242.803 9.32754V55.7467C242.803 60.8982 238.635 65.0742 233.493 65.0742H186.502C181.361 65.0742 177.193 60.8982 177.193 55.7467V9.32754C177.193 4.17607 173.024 0 167.883 0H72.5472C60.1707 0 50.7813 11.1744 52.8892 23.3921L79.407 177.079C81.0601 186.661 89.3577 193.661 99.0636 193.661H320.505C330.35 193.661 338.724 186.465 340.221 176.716L363.836 23.0297C365.696 10.9212 356.347 0 344.119 0Z" fill="white"/>
</mask>
<g mask="url(#mask1_0_184)">
<path d="M344.119 0H252.112C246.972 0 242.803 4.17607 242.803 9.32754V55.7467C242.803 60.8982 238.635 65.0742 233.493 65.0742H186.502C181.361 65.0742 177.193 60.8982 177.193 55.7467V9.32754C177.193 4.17607 173.024 0 167.883 0H72.5472C60.1707 0 50.7813 11.1744 52.8892 23.3921L79.407 177.079C81.0601 186.661 89.3577 193.661 99.0636 193.661H320.505C330.35 193.661 338.724 186.465 340.221 176.716L363.836 23.0297C365.696 10.9212 356.347 0 344.119 0Z" fill="url(#paint2_linear_0_184)"/>
<path fill-rule="evenodd" clip-rule="evenodd" d="M136.744 142.578C130.279 142.578 124.752 137.955 123.65 131.624L100.677 -3.20363C99.272 -11.2748 105.527 -18.655 113.77 -18.655L304.119 -18.4147C312.263 -18.4147 318.491 -11.2017 317.251 -3.20363L297.375 131.384C296.376 137.824 290.799 142.578 284.241 142.578H136.744Z" fill="url(#paint3_linear_0_184)"/>
</g>
<defs>
<linearGradient id="paint0_linear_0_184" x1="330.337" y1="395.516" x2="26.291" y2="605.85" gradientUnits="userSpaceOnUse">
<stop stop-color="#FAD961"/>
<stop offset="1" stop-color="#F76B1C"/>
</linearGradient>
<linearGradient id="paint1_linear_0_184" x1="206.867" y1="277.161" x2="213.067" y2="540.543" gradientUnits="userSpaceOnUse">
<stop stop-color="#FAD961"/>
<stop offset="1" stop-color="#F76B1C"/>
</linearGradient>
<linearGradient id="paint2_linear_0_184" x1="300.253" y1="129.688" x2="70.989" y2="287.417" gradientUnits="userSpaceOnUse">
<stop stop-color="#FAD961"/>
<stop offset="1" stop-color="#F76B1C"/>
</linearGradient>
<linearGradient id="paint3_linear_0_184" x1="208.944" y1="-18.655" x2="213.992" y2="180.583" gradientUnits="userSpaceOnUse">
<stop stop-color="#FAD961"/>
<stop offset="1" stop-color="#F76B1C"/>
</linearGradient>
</defs>
</svg>
